<svg width="22" height="33" viewBox="0 0 22 33" fill="none" xmlns="http://www.w3.org/2000/svg">
<path d="M12.9584 28.2823L12.504 28.3239V28.7802V28.7803V28.7803V28.7804V28.7805V28.7806V28.7807V28.7808V28.781V28.7812V28.7814V28.7816V28.7818V28.7821V28.7824V28.7826V28.783V28.7833V28.7836V28.784V28.7844V28.7848V28.7852V28.7856V28.7861V28.7866V28.7871V28.7876V28.7881V28.7887V28.7892V28.7898V28.7904V28.7911V28.7917V28.7924V28.793V28.7937V28.7944V28.7952V28.7959V28.7967V28.7975V28.7983V28.7991V28.7999V28.8008V28.8016V28.8025V28.8034V28.8044V28.8053V28.8063V28.8073V28.8083V28.8093V28.8103V28.8113V28.8124V28.8135V28.8146V28.8157V28.8168V28.818V28.8192V28.8204V28.8216V28.8228V28.824V28.8253V28.8265V28.8278V28.8291V28.8305V28.8318V28.8332V28.8345V28.8359V28.8373V28.8388V28.8402V28.8417V28.8431V28.8446V28.8461V28.8477V28.8492V28.8508V28.8523V28.8539V28.8555V28.8572V28.8588V28.8605V28.8621V28.8638V28.8655V28.8672V28.869V28.8707V28.8725V28.8743V28.8761V28.8779V28.8797V28.8816V28.8835V28.8853V28.8872V28.8892V28.8911V28.893V28.895V28.897V28.899V28.901V28.903V28.9051V28.9071V28.9092V28.9113V28.9134V28.9155V28.9176V28.9198V28.922V28.9241V28.9263V28.9285V28.9308V28.933V28.9353V28.9375V28.9398V28.9421V28.9445V28.9468V28.9491V28.9515V28.9539V28.9563V28.9587V28.9611V28.9636V28.966V28.9685V28.971V28.9735V28.976V28.9785V28.9811V28.9836V28.9862V28.9888V28.9914V28.994V28.9966V28.9993V29.0019V29.0046V29.0073V29.01V29.0127V29.0155V29.0182V29.021V29.0238V29.0265V29.0294V29.0322V29.035V29.0379V29.0407V29.0436V29.0465V29.0494V29.0523V29.0552V29.0582V29.0611V29.0641V29.0671V29.0701V29.0731V29.0762V29.0792V29.0823V29.0853V29.0884V29.0915V29.0946V29.0977V29.1009V29.104V29.1072V29.1104V29.1136V29.1168V29.12V29.1232V29.1265V29.1297V29.133V29.1363V29.1396V29.1429V29.1462V29.1496V29.1529V29.1563V29.1597V29.1631V29.1665V29.1699V29.1733V29.1768V29.1802V29.1837V29.1872V29.1907V29.1942V29.1977V29.2012V29.2048V29.2083V29.2119V29.2155V29.2191V29.2227V29.2263V29.2299V29.2336V29.2373V29.2409V29.2446V29.2483V29.252V29.2557V29.2595V29.2632V29.267V29.2707V29.2745V29.2783V29.2821V29.2859V29.2898V29.2936V29.2975V29.3013V29.3052V29.3091V29.313V29.3169V29.3208V29.3248V29.3287V29.3327V29.3367V29.3406V29.3446V29.3486V29.3527V29.3567V29.3607V29.3648V29.3688V29.3729V29.377V29.3811V29.3852V29.3893V29.3935V29.3976V29.4018V29.4059V29.4101V29.4143V29.4185V29.4227V29.4269V29.4312V29.4354V29.4397V29.4439V29.4482V29.4525V29.4568V29.4611V29.4654V29.4698V29.4741V29.4785V29.4828V29.4872V29.4916V29.496V29.5004V29.5048V29.5092V29.5137V29.5181V29.5226V29.527V29.5315V29.536V29.5405V29.545V29.5495V29.5541V29.5586V29.5632V29.5677V29.5723V29.5769V29.5815V29.5861V29.5907V29.5953V29.5999V29.6046V29.6092V29.6139V29.6185V29.6232V29.6279V29.6326V29.6373V29.6421V29.6468V29.6515V29.6563V29.661V29.6658V29.6706V29.6754V29.6802V29.685V29.6898V29.6946V29.6994V29.7043V29.7091V29.714V29.7189V29.7237V29.7286V29.7335V29.7384V29.7434V29.7483V29.7532V29.7582V29.7631V29.7681V29.773V29.778V29.783V29.788V29.793V29.798V29.8031V29.8081V29.8131V29.8182V29.8232V29.8283V29.8334V29.8385V29.8436V29.8487V29.8538V29.8589V29.864V29.8691V29.8743V29.8794V29.8846V29.8898V29.8949V29.9001V29.9053V29.9105V29.9157V29.921V29.9262V29.9314V29.9367V29.9419V29.9472V29.9524V29.9577V29.963V29.9683V29.9736V29.9789V29.9842V29.9895V29.9948V30.0002V30.0055V30.0109V30.0162V30.0216V30.027V30.0323V30.0377V30.0431V30.0485V30.0539V30.0594V30.0648V30.0702V30.0757V30.0811V30.0866V30.092V30.0975V30.103V30.1084V30.1139V30.1194V30.1249V30.1304V30.136V30.1415V30.147V30.1526V30.1581V30.1637V30.1692V30.1748V30.1804V30.1859V30.1915V30.1971V30.2027V30.2083V30.2139V30.2195V30.2252V30.2308V30.2364V30.2421V30.2477V30.2534V30.2591V30.2647V30.2704V30.2761V30.2818V30.2875V30.2932V30.2989V30.3046V30.3103V30.316V30.3218V30.3275V30.3333V30.339V30.3448V30.3505V30.3563V30.3621V30.3678V30.3736V30.3794V30.3852V30.391V30.3968V30.4026V30.4084V30.4143V30.4201V30.4259V30.4318V30.4376V30.4435V30.4493V30.4552V30.4611V30.4669V30.4728V30.4787V30.4846V30.4905V30.4964V30.5023V30.5082V30.5141V30.52V30.5259V30.5319V30.5378V30.5437V30.5497V30.5556V30.5616V30.5676V30.5735V30.5795V30.5855V30.5914V30.5974V30.6034V30.6094V30.6154V30.6214V30.6274V30.6334V30.6394C12.504 31.3636 11.8717 32 11.0293 32C10.1958 32 9.55435 31.3555 9.55375 30.6029V28.7052V28.2537L9.10469 28.2078C6.53712 27.9448 3.98882 27.2208 1.73778 26.115L1.73757 26.1149C0.473848 25.4949 0.129678 23.874 0.924759 22.7004L0.924919 22.7001C1.69337 21.5644 3.3011 21.2753 4.6907 21.9842C6.19264 22.751 7.67809 23.2564 9.20229 23.5021L9.78186 23.5955V23.0085V18.4518V18.0536L9.39374 17.9644C6.35558 17.2669 4.14509 16.4146 2.69631 15.2065C1.28048 14.0258 0.555282 12.474 0.555282 10.2512V10.1746C0.555282 8.0653 1.31927 6.30571 2.74881 5.01694C4.18691 3.72046 6.339 2.86523 9.16623 2.66177L9.63034 2.62837V2.16306V2.16304V2.16301V2.16297V2.16292V2.16286V2.16279V2.16271V2.16261V2.16251V2.16239V2.16227V2.16213V2.16198V2.16182V2.16165V2.16147V2.16128V2.16108V2.16087V2.16064V2.16041V2.16016V2.15991V2.15964V2.15936V2.15908V2.15878V2.15847V2.15815V2.15782V2.15748V2.15713V2.15676V2.15639V2.15601V2.15562V2.15521V2.1548V2.15437V2.15394V2.15349V2.15304V2.15257V2.15209V2.15161V2.15111V2.1506V2.15008V2.14956V2.14902V2.14847V2.14791V2.14734V2.14676V2.14617V2.14557V2.14496V2.14434V2.14371V2.14307V2.14242V2.14176V2.14109V2.14041V2.13972V2.13902V2.13831V2.13759V2.13686V2.13612V2.13537V2.13461V2.13384V2.13306V2.13227V2.13147V2.13066V2.12984V2.12902V2.12818V2.12733V2.12647V2.1256V2.12473V2.12384V2.12294V2.12204V2.12112V2.1202V2.11926V2.11832V2.11736V2.1164V2.11543V2.11444V2.11345V2.11245V2.11144V2.11042V2.10939V2.10835V2.1073V2.10624V2.10517V2.1041V2.10301V2.10192V2.10081V2.0997V2.09857V2.09744V2.0963V2.09515V2.09399V2.09282V2.09164V2.09045V2.08925V2.08805V2.08683V2.08561V2.08438V2.08313V2.08188V2.08062V2.07935V2.07808V2.07679V2.07549V2.07419V2.07287V2.07155V2.07022V2.06888V2.06753V2.06617V2.0648V2.06343V2.06204V2.06065V2.05925V2.05784V2.05642V2.05499V2.05355V2.0521V2.05065V2.04919V2.04772V2.04624V2.04475V2.04325V2.04174V2.04023V2.03871V2.03717V2.03563V2.03409V2.03253V2.03096V2.02939V2.02781V2.02622V2.02462V2.02301V2.0214V2.01977V2.01814V2.0165V2.01485V2.01319V2.01153V2.00986V2.00817V2.00648V2.00479V2.00308V2.00137V1.99964V1.99791V1.99617V1.99443V1.99267V1.99091V1.98914V1.98736V1.98557V1.98378V1.98198V1.98017V1.97835V1.97652V1.97469V1.97284V1.97099V1.96914V1.96727V1.9654V1.96352V1.96163V1.95973V1.95783V1.95591V1.95399V1.95207V1.95013V1.94819V1.94624V1.94428V1.94231V1.94034V1.93836V1.93637V1.93437V1.93237V1.93036V1.92834V1.92631V1.92428V1.92224V1.92019V1.91813V1.91607V1.914V1.91192V1.90984V1.90774V1.90564V1.90354V1.90142V1.8993V1.89717V1.89504V1.89289V1.89074V1.88858V1.88642V1.88425V1.88207V1.87988V1.87769V1.87549V1.87328V1.87106V1.86884V1.86661V1.86438V1.86214V1.85989V1.85763V1.85537V1.8531V1.85082V1.84853V1.84624V1.84394V1.84164V1.83933V1.83701V1.83469V1.83235V1.83001V1.82767V1.82532V1.82296V1.82059V1.81822V1.81584V1.81346V1.81106V1.80867V1.80626V1.80385V1.80143V1.79901V1.79657V1.79414V1.79169V1.78924V1.78678V1.78432V1.78185V1.77937V1.77689V1.7744V1.77191V1.7694V1.7669V1.76438V1.76186V1.75933V1.7568V1.75426V1.75171V1.74916V1.7466V1.74404V1.74147V1.73889V1.73631V1.73372V1.73113V1.72853V1.72592V1.72331V1.72069V1.71806V1.71543V1.71279V1.71015V1.7075V1.70485V1.70219V1.69952V1.69685V1.69417V1.69148V1.68879V1.6861V1.6834V1.68069V1.67798V1.67526V1.67253V1.6698V1.66707V1.66432V1.66158V1.65882V1.65606V1.6533V1.65053V1.64776V1.64497V1.64219V1.6394V1.6366V1.6338V1.63099V1.62817V1.62535V1.62253V1.6197V1.61686V1.61402V1.61118V1.60832V1.60547V1.6026V1.59974V1.59686V1.59399V1.5911V1.58821V1.58532V1.58242V1.57952V1.57661V1.57369V1.57077V1.56785V1.56492V1.56198V1.55904V1.5561V1.55315V1.55019V1.54723V1.54427V1.5413V1.53832V1.53535V1.53236V1.52937V1.52638V1.52338V1.52037V1.51736V1.51435V1.51133V1.50831V1.50528V1.50225V1.49921V1.49617V1.49312V1.49007V1.48701V1.48395V1.48088V1.47781V1.47474V1.47166V1.46858V1.46549V1.46239V1.4593V1.45619V1.45309V1.44998V1.44686V1.44374V1.44062V1.43749V1.43436V1.43122V1.42808V1.42493V1.42178V1.41862V1.41547V1.4123V1.40913V1.40596V1.40279V1.39961V1.39642V1.39323V1.39004V1.38684V1.38364V1.38044V1.37723V1.37402V1.3708V1.36758V1.36435V1.36112V1.35789V1.35465V1.35141V1.34816V1.34492V1.34166V1.33841V1.33515V1.33188V1.32861V1.32534V1.32206V1.31878V1.3155V1.31221V1.30892V1.30563V1.30233V1.29903V1.29572V1.29241V1.2891V1.28578V1.28246V1.27914V1.27581V1.27248V1.26914V1.2658V1.26246V1.25912V1.25577V1.25242V1.24906V1.2457V1.24234V1.23897V1.23561V1.23223V1.22886V1.22548V1.2221V1.21871V1.21532V1.21193V1.20853V1.20513V1.20173V1.19833V1.19492V1.19151V1.18809V1.18467V1.18125V1.17783V1.1744V1.17097V1.16754V1.1641V1.16066V1.15722V1.15378V1.15033V1.14688V1.14342V1.13997V1.13651V1.13304V1.12958V1.12611V1.12264V1.11917V1.11569V1.11221V1.10873V1.10524V1.10175V1.09826V1.09477V1.09127V1.08778V1.08428V1.08077C9.63034 1.05086 9.6595 0.913973 9.9489 0.755478C10.2195 0.607266 10.6274 0.5 11.105 0.5C11.5786 0.5 11.9826 0.611871 12.2511 0.766799C12.5329 0.929445 12.579 1.07903 12.579 1.13859V2.27801V2.72633L13.0247 2.77505C14.9015 2.98021 16.5922 3.45655 18.1313 4.14675C19.4206 4.72568 19.8273 6.34632 19.1075 7.52144L19.1073 7.5217C18.3947 8.68672 16.9568 9.03506 15.7415 8.49647C14.8339 8.09366 13.9057 7.78324 13.0087 7.56405L12.39 7.41287V8.04976V12.454V12.851L12.7767 12.941C15.7732 13.6381 17.9444 14.5079 19.3644 15.732C20.7543 16.9301 21.4642 18.5024 21.4642 20.7305V20.8062C21.4642 22.9805 20.6327 24.7112 19.179 25.9668C17.7135 27.2326 15.5828 28.0419 12.9584 28.2823ZM12.9893 18.5793L12.3509 18.3954V19.0598V23.2367V23.7943L12.9052 23.7338C13.8179 23.6342 14.5607 23.4098 15.084 23.0056C15.6353 22.5797 15.8953 21.9911 15.8953 21.3002V21.2237C15.8953 20.5964 15.711 20.0494 15.1939 19.5952C14.7169 19.1763 13.9891 18.8673 12.9893 18.5793ZM9.81939 7.70684V7.16445L9.27879 7.20849C8.29694 7.28848 7.53908 7.53352 7.01759 7.95303C6.47579 8.38888 6.23752 8.97456 6.23752 9.60495V9.68071C6.23752 10.2872 6.4115 10.8274 6.93246 11.2787C7.41078 11.693 8.14892 12.0015 9.18547 12.2896L9.81939 12.4659V11.8079V7.70684Z" fill="#EAB308" stroke="black"/>
</svg>
